<svg preserveAspectRatio="none" overflow="visible" style="display: block;" width="14" height="14" viewBox="0 0 14 14" fill="none" xmlns="http://www.w3.org/2000/svg">
<g id="star" clip-path="url(#clip0_0_90)">
<path id="Vector" d="M6.83928 1.21252C6.79032 1.24291 6.75083 1.28639 6.72527 1.33804L5.37835 4.06745C5.28951 4.24728 5.15831 4.40282 4.99603 4.5207C4.83375 4.63857 4.64525 4.71525 4.44677 4.74412L1.43385 5.18454C1.37651 5.19264 1.3226 5.21669 1.27826 5.25394C1.23392 5.29119 1.20094 5.34015 1.18306 5.39523C1.16519 5.45031 1.16315 5.50931 1.17716 5.5655C1.19118 5.62169 1.2207 5.67281 1.26235 5.71304L3.44168 7.83462C3.58554 7.97471 3.69316 8.14769 3.75525 8.33865C3.81734 8.5296 3.83205 8.7328 3.7981 8.9307L3.28419 11.9285C3.27419 11.9854 3.28038 12.0441 3.30207 12.0978C3.32375 12.1514 3.36006 12.1979 3.40686 12.2319C3.45365 12.2659 3.50906 12.2862 3.56678 12.2903C3.6245 12.2944 3.68221 12.2822 3.73335 12.2551L6.4266 10.8388C6.6041 10.7456 6.80158 10.6969 7.00206 10.6969C7.20254 10.6969 7.40002 10.7456 7.57752 10.8388L10.2714 12.2551C10.3225 12.2824 10.3803 12.2947 10.4381 12.2906C10.4959 12.2866 10.5514 12.2664 10.5983 12.2324C10.6452 12.1983 10.6816 12.1518 10.7033 12.098C10.725 12.0443 10.7312 11.9855 10.7211 11.9285L10.2066 8.93012C10.1728 8.73231 10.1876 8.52924 10.2497 8.3384C10.3118 8.14757 10.4193 7.97468 10.563 7.83462L12.7424 5.71245C12.7837 5.67218 12.8129 5.62114 12.8267 5.56512C12.8405 5.50911 12.8384 5.45034 12.8205 5.39547C12.8027 5.34061 12.7698 5.29183 12.7257 5.25465C12.6816 5.21748 12.628 5.19339 12.5709 5.18512L9.55735 4.74412C9.35909 4.71502 9.17086 4.63824 9.0088 4.52039C8.84674 4.40253 8.7157 4.2471 8.62694 4.06745L7.27944 1.33804C7.25387 1.28639 7.21438 1.24291 7.16542 1.21252C7.11646 1.18212 7.05998 1.16602 7.00235 1.16602C6.94472 1.16602 6.88824 1.18212 6.83928 1.21252Z" stroke="#C8960C" stroke-width="2" stroke-linecap="round"/>
</g>
<defs>
<clipPath id="clip0_0_90">
<rect width="14" height="14" fill="white"/>
</clipPath>
</defs>
</svg>
