<svg preserveAspectRatio="none" overflow="visible" style="display: block;" width="14.2375" height="14.2375" viewBox="0 0 14.2375 14.2375" fill="none" xmlns="http://www.w3.org/2000/svg">
<g id="Frame">
<path id="Vector" d="M7.11722 1.33436C6.11862 1.33414 5.13698 1.59246 4.26785 2.08418C3.39871 2.5759 2.67168 3.28426 2.15753 4.14032C1.64338 4.99638 1.35962 5.97097 1.33388 6.96923C1.30813 7.96749 1.54127 8.95542 2.01061 9.83684L1.37938 11.7305C1.32709 11.8873 1.3195 12.0556 1.35746 12.2164C1.39542 12.3773 1.47744 12.5244 1.5943 12.6413C1.71117 12.7581 1.85828 12.8402 2.01914 12.8781C2.17999 12.9161 2.34824 12.9085 2.50503 12.8562L4.39874 12.225C5.17444 12.6375 6.03395 12.868 6.91201 12.8988C7.79007 12.9296 8.66362 12.76 9.46634 12.4028C10.2691 12.0456 10.9798 11.5102 11.5448 10.8373C12.1097 10.1644 12.5139 9.37161 12.7267 8.51916C12.9394 7.66671 12.9552 6.77699 12.7728 5.91753C12.5904 5.05807 12.2146 4.25146 11.6739 3.55893C11.1332 2.86639 10.4419 2.30614 9.65234 1.92069C8.8628 1.53524 7.99582 1.33472 7.11722 1.33436ZM4.67014 7.78574C4.53814 7.78574 4.40911 7.7466 4.29936 7.67327C4.18961 7.59994 4.10407 7.4957 4.05356 7.37376C4.00304 7.25181 3.98983 7.11762 4.01558 6.98816C4.04133 6.8587 4.10489 6.73978 4.19823 6.64645C4.29156 6.55311 4.41048 6.48955 4.53994 6.4638C4.6694 6.43805 4.80359 6.45126 4.92554 6.50178C5.04748 6.55229 5.15172 6.63783 5.22505 6.74758C5.29838 6.85733 5.33752 6.98636 5.33752 7.11836C5.33752 7.29536 5.26721 7.46511 5.14205 7.59027C5.01689 7.71543 4.84714 7.78574 4.67014 7.78574ZM7.11722 7.78574C6.98522 7.78574 6.85619 7.7466 6.74644 7.67327C6.63669 7.59994 6.55115 7.4957 6.50063 7.37376C6.45012 7.25181 6.4369 7.11762 6.46265 6.98816C6.48841 6.8587 6.55197 6.73978 6.6453 6.64645C6.73864 6.55311 6.85756 6.48955 6.98702 6.4638C7.11648 6.43805 7.25066 6.45126 7.37261 6.50178C7.49456 6.55229 7.59879 6.63783 7.67213 6.74758C7.74546 6.85733 7.7846 6.98636 7.7846 7.11836C7.7846 7.29536 7.71429 7.46511 7.58913 7.59027C7.46397 7.71543 7.29422 7.78574 7.11722 7.78574ZM9.56429 7.78574C9.4323 7.78574 9.30327 7.7466 9.19351 7.67327C9.08376 7.59994 8.99822 7.4957 8.94771 7.37376C8.8972 7.25181 8.88398 7.11762 8.90973 6.98816C8.93548 6.8587 8.99905 6.73978 9.09238 6.64645C9.18572 6.55311 9.30463 6.48955 9.43409 6.4638C9.56355 6.43805 9.69774 6.45126 9.81969 6.50178C9.94164 6.55229 10.0459 6.63783 10.1192 6.74758C10.1925 6.85733 10.2317 6.98636 10.2317 7.11836C10.2317 7.29536 10.1614 7.46511 10.0362 7.59027C9.91105 7.71543 9.74129 7.78574 9.56429 7.78574Z" fill="#C9A96E"/>
</g>
</svg>
